<svg xmlns="http://www.w3.org/2000/svg" viewBox="0 0 587.6 587.6"><g id="Livello_2" data-name="Livello 2"><g id="Layer_1" data-name="Layer 1"><path d="M587.6,293.8c0,162.3-131.5,293.8-293.8,293.8S0,456.1,0,293.8,131.6,0,293.8,0,587.6,131.5,587.6,293.8" fill="#fff"/><path d="M294.6,319c-24.4,0-44.5-8.2-60.3-24.8s-23.7-37-23.7-61.4,7.9-44.8,23.6-61,35.7-24.3,60.2-24.3,44.3,8.2,59.6,24.9,23,37,23,61.5q0,36.45-23,60.8c-15.3,16.1-35,24.3-59.4,24.3" fill="#06c"/><path d="M210.6,439.1c0-24.5,7.9-44.8,23.5-61s35.7-24.3,60.4-24.3c24.4,0,44.3,8.2,59.5,24.9s23,37.1,23,61.5" fill="#06c"/></g></g></svg>